# xmcd CD database file
#
# Track frame offsets:
#	183
#	12713
#	33785
#	49230
#	65215
#	100438
#	115155
#	129870
#	161635
#	180930
#	197818
#
# Disc length: 2787 seconds
#
# Revision: 0
# Processed by: cddbd v1.5.2PL0 Copyright (c) Steve Scherf et al.
# Submitted via: CDex 1.51
#
DISCID=950ae10b
DTITLE=Faton Cahen - Couleur Rubis
DYEAR=1986
DGENRE=Jazz
TTITLE0=La Lune Est Rousse
TTITLE1=Salut Les Filles !
TTITLE2=Le Derviche Tourneur
TTITLE3=Pipovitch
TTITLE4=Le Chêne Noir
TTITLE5=La Grenouille Sur L'Echelle
TTITLE6=L'Eau Et Le Feu
TTITLE7=La Ballade Flambée
TTITLE8=Pipinsky
TTITLE9=Changes
TTITLE10=La Lune Etait Rousse
EXTD=YEAR: 1986
EXTT0=
EXTT1=
EXTT2=
EXTT3=
EXTT4=
EXTT5=
EXTT6=
EXTT7=
EXTT8=
EXTT9=
EXTT10=
PLAYORDER=
